<svg width="24" height="24" viewBox="0 0 24 24" fill="none" xmlns="http://www.w3.org/2000/svg">
<path fill-rule="evenodd" clip-rule="evenodd" d="M12 0C5.37258 0 0 5.37258 0 12C0 18.6274 5.37258 24 12 24C18.6274 24 24 18.6274 24 12C24 5.37258 18.6274 0 12 0ZM19.0474 5L13.6142 11.3482H13.6139L19.5231 19.9923H15.1772L11.198 14.1714L6.21603 19.9923H4.92847L10.6263 13.3352L4.92847 5H9.27435L13.0423 10.5121L17.7599 5H19.0474ZM11.2734 12.5787L11.8507 13.4087V13.409L15.7829 19.0623H17.7605L12.9419 12.1342L12.3646 11.3042L8.65757 5.97426H6.67995L11.2734 12.5787Z" fill="white"/>
</svg>
